<svg xmlns="http://www.w3.org/2000/svg" width="1400" height="900" viewBox="0 0 1400 900">
  <rect width="100%" height="100%" fill="white"/>
  <text x="40" y="40" font-family="Arial" font-size="28" font-weight="bold">ERD - Karaoke Chain Booking & POS</text>
  <rect x="80" y="160" width="220" height="90" rx="12" ry="12" fill="#f9f9f9" stroke="black" stroke-width="2"/>
  <text x="140" y="210" text-anchor="middle" font-family="Arial" font-size="22">Customer</text>
  <rect x="360" y="160" width="220" height="90" rx="12" ry="12" fill="#f9f9f9" stroke="black" stroke-width="2"/>
  <text x="470" y="210" text-anchor="middle" font-family="Arial" font-size="22">Booking</text>
  <rect x="640" y="160" width="220" height="90" rx="12" ry="12" fill="#f9f9f9" stroke="black" stroke-width="2"/>
  <text x="750" y="210" text-anchor="middle" font-family="Arial" font-size="22">Room</text>
  <rect x="920" y="160" width="220" height="90" rx="12" ry="12" fill="#f9f9f9" stroke="black" stroke-width="2"/>
  <text x="1030" y="210" text-anchor="middle" font-family="Arial" font-size="22">Service</text>
  <rect x="1180" y="160" width="220" height="90" rx="12" ry="12" fill="#f9f9f9" stroke="black" stroke-width="2"/>
  <text x="1290" y="210" text-anchor="middle" font-family="Arial" font-size="22">Payment</text>
  <rect x="80" y="520" width="220" height="90" rx="12" ry="12" fill="#f9f9f9" stroke="black" stroke-width="2"/>
  <text x="190" y="570" text-anchor="middle" font-family="Arial" font-size="22">Promotion</text>
  <rect x="360" y="520" width="220" height="90" rx="12" ry="12" fill="#f9f9f9" stroke="black" stroke-width="2"/>
  <text x="470" y="570" text-anchor="middle" font-family="Arial" font-size="22">Invoice</text>
  <rect x="660" y="520" width="220" height="90" rx="12" ry="12" fill="#f9f9f9" stroke="black" stroke-width="2"/>
  <text x="770" y="570" text-anchor="middle" font-family="Arial" font-size="22">RoomType</text>
  <line x1="300" y1="205" x2="360" y2="205" stroke="black" stroke-width="2"/>
  <line x1="580" y1="205" x2="640" y2="205" stroke="black" stroke-width="2"/>
  <line x1="860" y1="205" x2="920" y2="205" stroke="black" stroke-width="2"/>
  <line x1="1140" y1="205" x2="1180" y2="205" stroke="black" stroke-width="2"/>
  <line x1="300" y1="565" x2="360" y2="565" stroke="black" stroke-width="2"/>
  <line x1="580" y1="565" x2="660" y2="565" stroke="black" stroke-width="2"/>
  <text x="310" y="188" font-family="Arial" font-size="16">1:N</text>
  <text x="590" y="188" font-family="Arial" font-size="16">1:N</text>
  <text x="870" y="188" font-family="Arial" font-size="16">N:N</text>
  <text x="1150" y="188" font-family="Arial" font-size="16">1:N</text>
  <text x="310" y="548" font-family="Arial" font-size="16">N:N</text>
  <text x="590" y="548" font-family="Arial" font-size="16">1:1</text>
</svg>